<?xml version="1.0" standalone="no"?><!DOCTYPE svg PUBLIC "-//W3C//DTD SVG 1.1//EN" "http://www.w3.org/Graphics/SVG/1.1/DTD/svg11.dtd"><svg t="1614245906943" class="icon" viewBox="0 0 1024 1024" version="1.1" xmlns="http://www.w3.org/2000/svg" p-id="2744" xmlns:xlink="http://www.w3.org/1999/xlink" width="200" height="200"><defs><style type="text/css"></style></defs><path d="M99.626667 67.562667l359.957333 0.576a85.333333 85.333333 0 0 1 60.192 24.992l434.592 434.453333a85.312 85.312 0 0 1 1.877333 118.773333l-1.866666 1.898667-316.789334 316.789333a85.312 85.312 0 0 1-118.762666 1.856l-1.898667-1.866666L82.453333 530.442667a85.333333 85.333333 0 0 1-24.992-60.192L56.896 110.293333a42.666667 42.666667 0 0 1 40.256-42.666666l2.474667-0.064z m42.666666 85.397333l0.512 317.152 434.453334 434.581333L894.026667 587.946667l-434.581334-434.453334-317.152-0.522666zM756.053333 564.032a42.666667 42.666667 0 0 1 0 60.341333L612.736 767.68a42.666667 42.666667 0 1 1-60.341333-60.341333l143.306666-143.306667a42.666667 42.666667 0 0 1 60.341334 0zM320 256a74.666667 74.666667 0 1 1 0 149.333333 74.666667 74.666667 0 0 1 0-149.333333z" p-id="2745"></path></svg>